<svg xmlns="http://www.w3.org/2000/svg" viewBox="0 0 600 246.61"><defs><style>.cls-1{fill:#faedf6;}.cls-2{fill:#599dad;}.cls-3{fill:#6bb7bf;}.cls-4{fill:#86d1cd;}.cls-5{fill:#fe6083;}.cls-6{fill:#e22f67;}.cls-7{fill:#2b265e;}.cls-8{fill:#f7b794;}.cls-9{fill:#431b73;}.cls-10{fill:#61cef9;}.cls-11{fill:#163560;}.cls-12{fill:#3aa6c3;}.cls-13{fill:#814eb3;}.cls-14{fill:#f4a269;}.cls-15{fill:#ed985f;}.cls-16{fill:#653893;}.cls-17{fill:#9e332e;}.cls-18{fill:#fff;}.cls-19{fill:#2e3552;}</style></defs><g id="Layer_2" data-name="Layer 2"><g id="Brand_-_Desktop" data-name="Brand - Desktop"><g id="Diverse_Team" data-name="Diverse Team"><path class="cls-1" d="M38.3,245.86S5.45,164.62,53.51,116.11c62-62.57,142.12-10.27,172.18-11.79s31.75-61.56,121.57-68.73c69.45-5.54,183.51-6,159.17,92.1-18.49,74.57,84.43,35.94,64.39,118.32L38.3,245.86Z"/><path class="cls-2" d="M139,196.3s-7.82-9.12-.48-14.91c0,0,5.36-3.25,9.73-3,0,0-6.19,10.38-4.19,11.42s6.06-12.07,6.06-12.07,12.2-1.18,16.12.71c0,0-10.43,8.53-8.23,9s13.45-7.86,13.45-7.86,11.35,1.93,10.75,8.85-4.52,9.06-6.24,8.88-11.77-4-12-2.61,5.83,6,10.07,6.22c0,0-8,8.82-13.32,6.28s-5.77-6.58-9.08-8.1-6.15-1.51-4.78,0,7.37,3,9.27,6.39,3.59,5.62-1.91,4.79-14.44-4.85-14.84-9.46L139,196.3Z"/><path class="cls-2" d="M176.66,188.67s-30.82-1.19-37.63,7.63a22.17,22.17,0,0,1-6.14,8.61l-.72,2s5.34-5.63,7.25-6c0,0-3-10.92,37.24-12.24Z"/><path class="cls-2" d="M132.89,204.91a19.36,19.36,0,0,0-7.07,13.64l1.2.1s2.11-9,5.93-12.57-.06-1.17-.06-1.17Z"/><path class="cls-3" d="M111.7,184.83s12.44-7,6.63-16.42c0,0-4.64-5.8-9.61-7.29,0,0,2.65,14.09,0,14.42s-1.83-15.91-1.83-15.91-13.1-6.3-18.24-5.81c0,0,8.13,13.76,5.48,13.43S82.35,153,82.35,153s-13.43-2.48-15.58,5.48,1.32,11.93,3.31,12.43,14.76.33,14.43,2-9,4.31-13.76,2.82c0,0,5.3,13.1,12.27,12.43s9.12-5,13.43-5.3,7.46.83,5.3,2-9.45.38-12.93,3.34-6.3,4.78.17,6.11,18.07.5,20.39-4.48l2.32-5Z"/><path class="cls-3" d="M72.9,161s34.82,11.28,38.8,23.88a26.34,26.34,0,0,0,3.32,12.1v2.49s-3.65-8.46-5.64-9.62c0,0,7.79-10.94-36.48-28.85Z"/><path class="cls-3" d="M115,196.93a23,23,0,0,1,2.3,18.08l-1.38-.37s1.34-10.93-1.46-16.43.54-1.28.54-1.28Z"/><path class="cls-4" d="M131.48,175.22s-16.39-9.18-8.74-21.63c0,0,6.12-7.65,12.68-9.62,0,0-3.5,18.58,0,19s2.4-21,2.4-21,17.27-8.3,24-7.65c0,0-10.71,18.14-7.21,17.71s15.52-18.8,15.52-18.8,17.7-3.28,20.54,7.21-1.74,15.74-4.37,16.39-19.45.44-19,2.63,11.8,5.68,18.14,3.71c0,0-7,17.27-16.18,16.39s-12-6.55-17.7-7-9.83,1.09-7,2.62,12.46.51,17,4.41,8.31,6.3-.21,8.05-23.83.66-26.89-5.9l-3.06-6.56Z"/><path class="cls-3" d="M182.63,143.75s-45.9,14.86-51.15,31.47a34.86,34.86,0,0,1-4.37,16v3.28s4.81-11.15,7.43-12.68c0,0-10.27-14.42,48.09-38Z"/><path class="cls-3" d="M127.11,191.18s-7.08,10.75-3,23.83l1.82-.49s-1.77-14.41,1.94-21.66-.72-1.68-.72-1.68Z"/><path class="cls-5" d="M130.93,243.38A32.1,32.1,0,0,0,163,211.28H98.82a32.11,32.11,0,0,0,32.11,32.1Z"/><path class="cls-6" d="M138.83,243.14a32.62,32.62,0,0,1-4,.25,32.11,32.11,0,0,1-32.1-32.11h8a32.12,32.12,0,0,0,28.12,31.86Z"/><path class="cls-5" d="M163.48,245H98.38a4,4,0,0,1,4-4h57.18a4,4,0,0,1,4,4Z"/><polygon class="cls-5" points="163.77 212.26 97.77 212.26 97.77 211.28 163.77 211.28 163.77 212.26 163.77 212.26"/><path class="cls-7" d="M448.56,234.15s.67,10.73,2.75,10.89c.27,0,10.53,0,10.53,0l13.09-.08s-.09-3.15-3.91-3.82-10.24-3.36-12.55-8.42c-2.44-5.32-9.91,1.41-9.91,1.41Z"/><path class="cls-8" d="M441.58,107.22s6.18,3.51,7.91,3.51,8.52-1.31,10.41-.34,5.32,4.86,6,6.13c1.15,2.28-4.66,1.27-7.41-.67a1.72,1.72,0,0,0-1.37-.29c-1.42.31-4.38.85-5.8.32-1.92-.71-12-1.5-12-1.5l2.32-7.16Z"/><path class="cls-9" d="M394.55,59.35s6.41,45.54,17,49.62c5.24,2,28.37,6.57,35.21,7,0,0,1.68-1.36,1.27-6.9,0,0-24.24-8.89-27.68-13.73-5.13-7.21,3.18-29.43-3.25-36.19s-17.26-9.67-22.57.17Z"/><path class="cls-10" d="M396.71,155.29a79.41,79.41,0,0,0,6.26,9c6.89,8.7,14.38,15.86,15.69,22.64a30.56,30.56,0,0,0,1.21,4.34c.55,1.55,1.22,3.18,2,4.87A149.6,149.6,0,0,0,433.52,216c7.54,11.18,14.64,20.5,14.64,20.5l13-.55c-.52-1.3-6.19-16.74-13.78-35.59l-9.52-23.65c-.42-1.05-.84-2.1-1.26-3.13-1-2.41-1.92-4.77-2.84-7.08L421,134.71s-28.48-10.79-31.43-3.8c-2.44,5.76-.45,11.41,7.19,24.38Z"/><path class="cls-11" d="M418.45,203.49s-9.05,5.81-8.17,7.7c.11.25,5.11,9.2,5.11,9.2l6.45,11.4s2.71-1.61,1.43-5.28-2.06-10.57,1.23-15.06c3.46-4.72-6.05-8-6.05-8Z"/><path class="cls-10" d="M422.87,213.7s-5.65-5-6.65-8.64c0,0,23.3-27.91,28.35-34.17.24-.29.18-.6-.13-.95-3.82-4.3-46.21-13.05-51.75-21.66a26.94,26.94,0,0,1-3.58-8.26,19.57,19.57,0,0,1-.26-8.89l42.34-1.22s35.24,21.94,39.24,36.91-47.56,46.88-47.56,46.88Z"/><path class="cls-12" d="M444.44,169.94c-3.82-4.3-46.21-13.05-51.75-21.66a26.94,26.94,0,0,1-3.58-8.26v-5.36l18-2.83s5.1,15.71,20.21,21.59c14.16,5.52,16.84,15.3,17.12,16.52Z"/><path class="cls-8" d="M419.6,56.48c-8.56,2.22-22.76-5.72-22.76-5.72a21,21,0,0,0,7.56-11.84c.1-.41.19-.83.28-1.26l4.39-.94,6.55,5.86a56.2,56.2,0,0,1-1,6.62c-.14.73-.31,1.51-.49,2.35a20.06,20.06,0,0,1,5.44,4.93Z"/><path class="cls-13" d="M387.77,92c1.23,16.5-.38,41.59,1,45.94,1.2,3.75,14.88,1.52,20.34.27,2-.47,4.48-1.13,7-1.91,7.06-2.18,14.75-5.3,15.57-7.62a2.76,2.76,0,0,0,.08-.27,2.12,2.12,0,0,0,0-1c-.27-1.18-1.33-2.45-1.46-5.38-.14-3.26-.12-7.1-.24-11.23a13.75,13.75,0,0,0-.06-1.44v-.43c-.12-4.61-.36-9.46-.64-14.26-.18-3-.38-6-.62-8.87-.61-7.39-1.44-14-2.54-18.12-1.79-6.77-5.75-11.19-9.35-14.43L414.23,51a15,15,0,0,1-9.45-1.26c-3.36-1.59-4.52-2.74-5.11-2.31-7.76,6-13.35,24.35-11.9,44.52Z"/><path class="cls-9" d="M416.12,136.28c7.06-2.18,14.75-5.3,15.57-7.62a2.76,2.76,0,0,0,.08-.27c0-.32,0-.64,0-1-.27-1.18-1.33-2.45-1.46-5.38-.14-3.26-.12-7.1-.24-11.23a13.75,13.75,0,0,0-.06-1.44v-.43L401.46,72.6s-19.17,39.92,14.66,63.68Z"/><path class="cls-14" d="M415.62,42.58a56.2,56.2,0,0,1-1,6.62c-6.39-2.06-9.29-7.83-10.25-10.28.1-.41.19-.83.28-1.26l4.39-.94,6.55,5.86Z"/><path class="cls-8" d="M416.48,46.27s-13.93-2.32-12.35-11,.85-14.78,9.81-13.66,10.08,4.74,10.25,7.75-4.05,17.27-7.71,16.89Z"/><polygon class="cls-6" points="471.31 120.31 472.54 120.71 482.99 88.54 481.76 88.14 471.31 120.31 471.31 120.31"/><polygon class="cls-6" points="437.1 117.83 472.58 118.58 472.54 120.71 437.05 119.95 437.1 117.83 437.1 117.83"/><path class="cls-8" d="M437.76,121.64s11.4,3,15.68,2.69,7.83-2.34,8.37-3.41,1.67-2.94-1.24-2.59-6.89,1-7,.4,2.37-.5,2.37-.5.76-1.1-.19-1.14-3.72-.79-4.75-.28-2,2.42-2.73,2.34-9.55-4-9.55-4l-.95,6.45Z"/><path class="cls-13" d="M397.38,61.22s1.35,46,11.44,51.19c5,2.58,27.48,9.66,34.23,10.87,0,0,1.81-1.16,2-6.71,0,0-23.11-11.52-26-16.71-4.3-7.72,6.41-28.89.76-36.32S403.74,52,397.38,61.22Z"/><path class="cls-7" d="M404.4,38.92s-.16-3,1.67-4.67c0,0-.64-3,.54-3.47s1.42,2,2,1.62a12,12,0,0,0,4-5c1-2.75,10.47.58,11.56,1.07s4.64-1.32,5.32-2.79a20.49,20.49,0,0,1-2.84-2.75c-.89-1.18-7.07-9.12-15.7-6.87s-9.82,6.38-9.32,9.91-.7,11.76,2.84,13Z"/><path class="cls-9" d="M142.53,56.56l7.43-.71a1.38,1.38,0,0,1,1.39.84L157,70.2a1.36,1.36,0,0,1-1.13,1.88l-7.73.74a1.38,1.38,0,0,1-1.4-.86l-5.31-13.54a1.37,1.37,0,0,1,1.14-1.86Z"/><path class="cls-13" d="M236.77,235l-3.94,2.09s-21.32-22.61-26.45-44.31a33.63,33.63,0,0,1-.9-11.32s-.31-1-.85-2.72c0-.07,0-.15-.07-.23l-.84-2.68L199.67,163c-3.72-11.75-12.21-38.27-15.83-49.29l26.07-9.44s3,6.76,7.22,25.11c.65,2.4,1.31,5,1.92,7.93.7,3.27,1.35,6.85,1.89,10.71a165.46,165.46,0,0,1,1.56,22c0,3.28-.07,6.69-.26,10.2a44.38,44.38,0,0,0,1,9.91C226.48,208,236.77,235,236.77,235Z"/><path class="cls-9" d="M251.05,245H230s-.79-3.36.59-5.65c1.23-2,.76-3.18-.15-4.85a8.19,8.19,0,0,0,3.55.66,7.41,7.41,0,0,0,3.14-1.1,74,74,0,0,0,6,6.31c1.38,1,7.52.64,8,4.63Z"/><path class="cls-9" d="M220.94,148l-16.38,30.53-.84-2.68L199.67,163c-3.72-11.75-12.21-38.27-15.83-49.29l26.07-9.44s3,6.76,7.22,25.11c.65,2.4,1.31,5,1.92,7.93.7,3.27,1.35,6.85,1.89,10.71Z"/><path class="cls-8" d="M150,80.68c-.13.11-6.38-6.28-9.71-9.81l3.34-2,18.24,11.46L150,80.68Z"/><path class="cls-7" d="M183.41,238.42a13.61,13.61,0,0,0,.89,6.6H193a11.07,11.07,0,0,0-2.16-5.88c-2.22-3.27-7.46-.72-7.46-.72Z"/><path class="cls-7" d="M200.62,5.43c.12-.56,1.61-6.54,10.89-5.25,0,0-4.63-.25-5.76,1.61,0,0,3.51-1.93,5.89-.7s3.09,5.9,2.85,7.35-2.45,5.88-4.11,6a5.06,5.06,0,0,1-1.94-.34,22.78,22.78,0,0,1,.86,2.43c2.36,8.19-2.72,14.92-5.69,13.56-1.91-.87-3.06,2.44-3.06,2.44L183.87,13.44s9.7-13.52,16.75-8Z"/><path class="cls-8" d="M183.56,56.63a23.75,23.75,0,0,0,8.32,3.54c12.84,3,17.76-7.88,19.61-15.33a11,11,0,0,0-4.35-1.33c-.93-.11-1.91-.18-2.71-.22-1.44-1.11-3.59-5.63-4.07-12.64l-.6.16-10.12,2.77s.46,3.22.69,6.25c.18,2.38.21,4.66-.24,5.21-.79.17-1.27.29-1.27.29h0a64.28,64.28,0,0,0-5.26,11.3Z"/><path class="cls-15" d="M189.64,33.58s.47,3.21.69,6.26c5.73-.58,8.39-6,9.43-9l-10.12,2.77Z"/><path class="cls-8" d="M187.93,36.6s13.6-.75,13-9.22.75-14.26-8-14.14-10.17,3.47-10.66,6.35,2.06,17,5.61,17Z"/><path class="cls-7" d="M182.39,14.85c1.92-2.69,3.55-2.25,4.49-1.55a9.53,9.53,0,0,1,12.35,1.08,16.21,16.21,0,0,0,6,9.17s-2.37,1.71-8.19.65a9.7,9.7,0,0,1-4.85-2.86,31.73,31.73,0,0,0,5.93,6.27c-7-2.66-10.46-11.95-10.81-12.93a10.78,10.78,0,0,0-2.68,4.16c-.52,2.2-.5,6.66-1.81,6.6,0,0-3.29-6.54-.41-10.59Z"/><path class="cls-8" d="M185.73,44.64s22.16-5.38,31.8,2.57l-4.82,67.17L169.37,103.9s1.22-4.25,9.53-15.55,4.7-27.87,6.83-43.71Z"/><path class="cls-13" d="M198.65,106.9s0,.23-.07.66c0,.19-.05.41-.07.68-.19,1.74-.54,5.08-1,9.42-1.19,11.39-3.06,29.69-4.33,44.13-1,11.29-1.62,20.22-1.28,21.66,1,4.31,0,55.93,0,55.93-3.69,1.77-9.27,0-9.27,0s-9.81-46.51-8.44-53a22.29,22.29,0,0,0-.92-12c-7.62-35.48-6.78-55.15-5.27-64.56a40.51,40.51,0,0,1,1.3-5.75,12.49,12.49,0,0,1,.52-1.41,35.88,35.88,0,0,1,28.83,4.2Z"/><path class="cls-9" d="M212.71,114.37a42.46,42.46,0,0,1-15.2,3.29A50.94,50.94,0,0,1,185,116.47a57.68,57.68,0,0,1-17-6.61,40.51,40.51,0,0,1,1.3-5.75c5.12-3.64,17.77-.16,28.11,3.71l1.1.42c7.91,3,14.2,6.13,14.2,6.13Z"/><path class="cls-13" d="M220.51,66.37c-1.06,8.08-5.34,18-6.87,23.29,0,0,2.55,18.48.11,23.55a2.19,2.19,0,0,1-1,1.16c-9,3.94-44.23.12-45.72-11.24C166.45,99,180.4,84.5,181.21,82.74c.34-.73.7-3.09-.94-8-2.32,7.14-6.6,15.39-10.9,16.8-4.73,1.55-23.44-12.39-23.44-12.39s-.11-1.7,2.26-3.3c1.52-1,5-1.38,5-1.38l12,5.36c1.5-2.57,5.24-20.34,9.42-28.37,3.14-6,11.53-6.9,11.53-6.9s3.49,5.53,11.92,4.75,10-5.95,10-5.95,7.48,1,9.79,2.85c.4.32,4.11,9.55,2.7,20.14Z"/><path class="cls-9" d="M213.64,89.66s2.55,18.48.11,23.55c-6.58-3.31-15.16-10.44-12.55-21.59,3.79-16.19,19.31-25.25,19.31-25.25-1.06,8.08-5.34,18-6.87,23.29Z"/><path class="cls-8" d="M208,77.24s-9.38,1.36-10.12,2.06-3.34,4.76-3,6.17.29,2.88.86,2.78,2.45-3.7,3.15-3.86,1.29-.65,1.38-.34-1.44,1.83-1.36,2.26,1.27-.07,1.81-.91,1.89-1.24,2.09-1.76,1.13-2.24,2.39-2.17S208,77.24,208,77.24Z"/><polygon class="cls-8" points="217.13 76.87 208.02 77.24 204.9 81.49 217.3 81.91 217.13 76.87 217.13 76.87"/><path class="cls-13" d="M208,43.38s10.86,1.29,13.86,5.95c3.78,5.89,17.15,25.44,16.86,31.35,0,0-8.32,3.32-30.72,1.54,0,0-.4-3.39,4.31-6.1,0,0,12-1.65,13.34-2.82l-8.92-9.48L208,43.38Z"/><path class="cls-16" d="M140.91,56.71l7.43-.71a1.35,1.35,0,0,1,1.39.84l5.62,13.5a1.36,1.36,0,0,1-1.13,1.88l-7.74.74a1.36,1.36,0,0,1-1.4-.86l-5.31-13.53a1.37,1.37,0,0,1,1.14-1.86Z"/><path class="cls-8" d="M140.24,70.87s-2-3.39-1.82-4.22,2.18-4.7,3.22-5.09c1.87-.69,4.48-1.11,3.76.85-.47,1.3-2.35,3.17-2,3.76a8.43,8.43,0,0,1,.2,2.66l-3.34,2Z"/><path class="cls-6" d="M436.45,216.86c-2.66,17.06-20.07,27.93-37.94,27.93H363.13l2.77-99.47s33.76-10.84,42.24-.53c7.42,9,27.57,44.77,28.63,65.93a30.27,30.27,0,0,1-.32,6.14Z"/><path class="cls-5" d="M342.53,155.85s47.73-24.36,56.77-8.45c4.8,8.45,18,42.16,19,63.32.94,20.55-16.86,34.07-35.18,34.07H350.57l-8-88.94Z"/><path class="cls-5" d="M351.51,169.36c-.4,2.07-4.27,4-10,5.69-1,.3-2.07.6-3.19.88-19.52,5-54.09,7.77-57.38,6.3-4.56-2-32.5-101.33-32.5-101.33s26.67-1,47.86-1.49c7.25-.16,13.85-.27,18.53-.25a11.6,11.6,0,0,1,1.6.11,7.66,7.66,0,0,1,4.72,2.41c3.41,3.67,4.25,10.91,7.41,18.91s7,17.79,10.59,27.59c.94,2.52,1.86,5,2.76,7.53l.75,2.09c5.37,15,9.51,28.21,8.86,31.56Z"/><path class="cls-5" d="M436.45,216.86c-2.66,17.06-20.07,27.93-37.94,27.93H381.16c11.57-7.84,22-32,55.29-27.93Z"/><path class="cls-6" d="M342.65,137.8l-3.33-.56a2.8,2.8,0,0,1-.61-.83c-.52-1.15-.17-4.45.43-8.23-3.63-9.8-7.47-19.68-10.59-27.59s-4-15.24-7.41-18.91a7.66,7.66,0,0,0-4.72-2.41l-8.85.14a13.71,13.71,0,0,1-6.22,5.91c-14.47,7.62-3.73,23.32-3.73,23.32s5.74,11.28,5.74,11.28c0-.78.74-2.18,2-4a92,92,0,0,0,4.39,18.45c-1,5.17-3.65,12.88-5.05,18.78-1.13,4.7-1.47,8.24.38,8.42a5.29,5.29,0,0,0,.69,0,9.67,9.67,0,0,0,1.13,5.15c3.63,7,21.08,8.28,34.56,8.3,5.74-1.7,9.61-3.62,10-5.69.65-3.35-3.49-16.53-8.86-31.56Z"/><path class="cls-6" d="M408.59,229.51c-6.83,9.49-17.3,15.57-29,15.38l-50.17,0-24,0,27-89.07s68.44-6.81,76.88,2.27c3.92,4.22,6.12,23.31,7.36,42.56a44.49,44.49,0,0,1-8.11,28.82Z"/><path class="cls-5" d="M408.59,229.51c-6.83,9.49-17.3,15.57-29,15.38l-50.17,0c5.9-4.95,24.47-19,44.35-18.35,15.07.51,27,.29,34.79,2.95Z"/><path class="cls-8" d="M346.92,93.53s4.17,6.16,6.55,19.13c2.08,11.36,3.9,15.55,6.91,17.88s19.76,9.2,19.76,9.2l-1.25,2.94s-24.56-3.35-27.32-7.45-13.27-28.35-12.45-33.93,7.8-7.77,7.8-7.77Z"/><path class="cls-8" d="M407.05,229c-.22,2.4,3.11,3,7,3.17s2.7,1,8,1.94,7.41-.49,7.79-1.2-2.12-1.63-4.74-2.75l-1-.43c-2.95-1.3-4.6-3.94-6.91-6.4s-4.24-9.76-4.24-9.76L405.73,212s2,6.7,2.72,9.56a8.87,8.87,0,0,1-.74,5,9.64,9.64,0,0,0-.66,2.42Z"/><path class="cls-7" d="M414,232.15c3.86.19,2.7,1,8,1.94s7.41-.49,7.79-1.2-2.12-1.63-4.74-2.75l0,.05a15.06,15.06,0,0,1-8,.09c-3.5-.95-6.89-3-9.3-3.72a9.64,9.64,0,0,0-.66,2.42c-.22,2.4,3.11,3,7,3.17Z"/><path class="cls-12" d="M335.44,143.71s47.78-3.6,56.78,2.08,23.42,71.81,23.42,71.81a5.92,5.92,0,0,1-2.88.93c-1.84.2-5.92-.89-5.92-.89s-20.73-29.59-22.19-37-1.11-14.11-4.43-14.29-44.79,5-51.06-6-1.08-22-1.08-22l7.36,5.39Z"/><path class="cls-8" d="M388.76,236.66c-.22,2.39,3.12,3,7,3.17s2.69,1,8,1.94,7.42-.49,7.8-1.21-2.12-1.62-4.74-2.74l-1-.43c-3-1.3-4.61-3.95-6.91-6.4s-4.25-9.77-4.25-9.77l-7.19-1.53s2,6.7,2.72,9.55a8.89,8.89,0,0,1-.73,5,9.15,9.15,0,0,0-.67,2.42Z"/><path class="cls-7" d="M395.74,239.83c3.86.19,2.69,1,8,1.94s7.42-.49,7.8-1.21-2.12-1.62-4.74-2.74l0,0a15.15,15.15,0,0,1-8,.1c-3.5-1-6.88-3.05-9.29-3.72a9.15,9.15,0,0,0-.67,2.42c-.22,2.39,3.12,3,7,3.17Z"/><path class="cls-10" d="M326.08,146.67s42.45,2,51.22,8,20.61,72.67,20.61,72.67a5.82,5.82,0,0,1-2.91.81c-1.86.13-5.89-1.11-5.89-1.11s-19.57-30.38-20.74-37.88-.55-14.14-3.87-14.45-44.94,3.3-50.78-8,12.36-20.08,12.36-20.08Z"/><path class="cls-7" d="M341.21,53.26a11,11,0,0,0-5.87-1.53,2.8,2.8,0,0,1,1.29-.52,9.22,9.22,0,0,0-3.35.64c-13.79-6.4-17.4,14.3-17.43,19.16s-.36,10.44-7.72,14.31c-14.47,7.62-3.73,23.32-3.73,23.32s5.74,11.28,5.74,11.28C310.05,116,329.48,96.54,339.31,91c2.52-3.22,3.73-9.13,3.82-9.6-.71,4.71-1.69,7.3-2.52,8.75,8.47-6.81,5.59-33.58.6-36.87Z"/><path class="cls-8" d="M324.3,86.42s3.75.16,7.7.54a29.8,29.8,0,0,1,7.06,1.18c3.74,1.57,3.35,8.19-4.5,7s-10.81-6.71-10.26-8.68Z"/><path class="cls-8" d="M338.73,91.25s1.12,5.7-4,5.47c-3.37-.15-10.65-4.23-10-7.12.31-1.37,2.86-4.93,3.37-13.07l.61.17L339,79.47s-.45,3.28-.67,6.38c-.18,2.6-.19,5.08.39,5.4Z"/><path class="cls-14" d="M339,79.47s-.45,3.28-.67,6.38c-5.84-.56-8.58-6.11-9.66-9.15L339,79.47Z"/><path class="cls-7" d="M327.68,75.49s-2.75-5.06-3.21-9.25c-.32-3,1.91-13.87,12.84-11.56a15,15,0,0,1,6.05,2.77c2.29,1.77,5.51,5.49,1,14.81l-1.22,3.17-15.47.06Z"/><path class="cls-8" d="M340.77,82.54s-13.87-.7-13.3-9.33-.85-14.54,8-14.46,10.38,3.49,10.89,6.41-2,17.33-5.63,17.38Z"/><path class="cls-7" d="M341.83,59s-4.47,9.87-10.39,11-8.35-.62-8.35-.62a16.52,16.52,0,0,0,6.05-9.38s10.15-6,12.69-1Z"/><path class="cls-7" d="M340.83,59.72s2.69,2.45,3.23,4.69.56,6.79,1.88,6.73c0,0,3.32-6.69.37-10.8-3.13-4.36-5.48-.62-5.48-.62Z"/><path class="cls-10" d="M354.65,144.43c-1.12,1.34-4.63,1.75-8.37,2.37-2.95.49-6,1.1-8.25,2.39-5,2.94-21.34,12.86-26.12,12.41-1.86-.18-1.51-3.72-.39-8.42,1.77-7.43,5.48-17.74,5.48-22.23a129.62,129.62,0,0,1,1.9-14.86c.08-.53.17-1.07.27-1.61,2.15-12.88,5.13-28.06,5.13-28.06s3.32,7.25,9.79,7.25,5-5.53,5-5.53,5.91.7,7.31,2.2,4.93,8,5.63,9.78c0,0,.15,2.25-5.44,3.32a74.41,74.41,0,0,1,1.53,10.21c.11,3-2.06,12.44-2.69,18.31a10.81,10.81,0,0,0,.09,4.45c.43,1,1.83,1.89,3.42,2.82,3.15,1.84,7.08,3.6,5.74,5.2Z"/><path class="cls-12" d="M348.91,139.23c3.58,6.11-9.72,8-11.92,9.24-5,2.93-20.3,13.58-25.08,13.13-1.86-.18-1.51-3.72-.39-8.42,1.77-7.43,5.48-17.74,5.48-22.23a129.62,129.62,0,0,1,1.9-14.86l5.76-5.53s6.18,16,12.07,18.58A49.28,49.28,0,0,0,345.4,132a10.81,10.81,0,0,0,.09,4.45c.43,1,1.83,1.89,3.42,2.82Z"/><path class="cls-8" d="M322.53,91.2s-4.93-3-9.7,2.69,3.39,46.26,10.45,48.34c7.84,2.32,30.5-.37,30.5-.37l-.44-3.54s-24.12-4.62-25.12-5.91S325,91.86,322.53,91.2Z"/><path class="cls-10" d="M324.3,86.42s-10.12.91-13.06,4.24-3.8,12.35-3.8,12.35,8.91,7.2,19.65,4.41l-2.79-21Z"/><polygon class="cls-17" points="369.51 145.34 356.14 145.34 356.14 143.76 369.51 143.76 369.51 145.34 369.51 145.34"/><path class="cls-17" d="M366.67,145.12c.13-.52,12.29-19.61,12.29-19.61H406l-13.58,19.1-25.77.51Z"/><path class="cls-5" d="M367.81,145.34c.13-.52,12.33-19.83,12.33-19.83H406L393.1,145.34Z"/><path class="cls-17" d="M390.62,135.49a2.16,2.16,0,0,1-1.88,1.4,1,1,0,0,1-.92-1.4,2.15,2.15,0,0,1,1.88-1.4,1,1,0,0,1,.92,1.4Z"/><path class="cls-8" d="M351.37,138.11s7.86-1.52,8.74-1.14,5.83,4.81,5.32,5.7-2.53,1.52-4.81.76-7.22-1.14-8.11-2.28a7.55,7.55,0,0,1-1.14-3Z"/><path class="cls-6" d="M367,217.75c-2.87,16.55-18.61,27-34.75,27H299.73l2.55-99.47s31-10.84,38.84-.53c6.83,9,25.36,44.77,26.33,65.93a32.39,32.39,0,0,1-.43,7Z"/><path class="cls-5" d="M367,217.75c-2.87,16.55-18.61,27-34.75,27h-26c12.19-8.26,28.6-31.08,60.79-27Z"/><path class="cls-5" d="M316.58,244.72l-.73.05-1.55,0H281.25l-1.88,0-10.1.11h-2.19c-3.21,0-6,0-8.06,0a53.79,53.79,0,0,1-8-.62,36.11,36.11,0,0,1-9-2.56,31.75,31.75,0,0,1-2.85-1.45,27.86,27.86,0,0,1-3.53-2.41,31.77,31.77,0,0,1-7.5-8.81,48.11,48.11,0,0,1-3.9-8.5A81.92,81.92,0,0,1,220.79,207a177.72,177.72,0,0,1-2.18-25.68q-.12-5.94,0-12.55.18-10.56.94-22.86c.72-11.54,1.81-24.26,3.26-38.26,1.31-12.8,2.83-21.74,5-23.78,3.26-3,10.06-4.21,14.79-4.69h0c2.94-.3,5.07-.33,5.07-.33,5.78,0,10.92,4.15,12.77,10.32,3.78,12.55,10.52,35,17.54,58.46,0,.12.07.24.1.36.4,1.35.81,2.7,1.21,4.05.06.21.13.41.19.62l1.23-.55,0,0c1.68-.74,3.59-1.56,5.64-2.39h0c1.07-.43,2.17-.87,3.31-1.31,3.21-1.23,6.68-2.44,10.19-3.49,1.56-.47,3.13-.9,4.69-1.29,2-.49,4-.91,5.93-1.23l.17,0,.68-.11c8.35-1.22,15.61-.37,18.6,4.92,4.8,8.47,18,42.28,19,63.5.9,19.56-15.1,32.77-32.39,34.07Z"/><path class="cls-6" d="M264.39,156.62s-16.7-68-17.91-73.76a4.29,4.29,0,0,0-3.86-3.7c2.94-.3,5.07-.33,5.07-.33,5.78,0,10.92,4.14,12.77,10.29,4.05,13.4,11.49,38.12,19,63.31-.38,0-15.11,4.19-15.11,4.19Z"/><path class="cls-6" d="M325.92,189.33c-4.47-7.38-.72-8.77-1.4-25.32s-8.39-15.18-11.59-18.38a8.72,8.72,0,0,1-1.55-3.4l-.68.11-.17,0c-1.94.32-3.93.74-5.93,1.23-1.56.39-3.13.82-4.69,1.29-3.51,1.05-7,2.26-10.19,3.49-1.14.44-2.24.88-3.31,1.31-2.76,17.36-7,95.15-7,95.15l.1.11,10.86-.12,1.53,0v0h24.56l.09-.06.07,0c6.6-4.09,5.12-12.3,3.57-17.44-.62-5.5-3.06-11.95-5-17.94.62-1.82,1.48-2.86,5.2-4.23,4.12-1.52,5.21-8,5.21-8,1.1,2.91-1.42,6.91-1.49,7,.14-.17,6.31-7.48,1.89-14.78Z"/><path class="cls-8" d="M271.07,155.8s-24.77,10.79-29.27,10.59S209.6,158,209.6,158l.7,4.76s21.38,12.3,28.86,13,32.52-6.61,35-8.15,4-10.21-3-11.77Z"/><path class="cls-7" d="M274.79,116.1s9.14-1.74,13.69,1.59c8.24,6,8.68,26.77,11.77,29.86s10.54,1.78,11.21,17.77-3,17.34,1.35,24.48S311,204.09,311,204.09s2.52-3.94,1.44-6.79c0,0-1.05,6.29-5,7.76s-4.58,2.55-5.21,4.71c0,0-34-17.44-34.08-29.81s-6.69-24.63-3.42-30a11.83,11.83,0,0,0-1.64,4.85,6.4,6.4,0,0,1,1.44-7.27c3.4-3.5-4-10.74-2.9-19.13.76-5.76,4.8-12.07,13.22-12.32Z"/><path class="cls-8" d="M268.06,167.58a23.76,23.76,0,0,0,8.32,3.55c12.84,3,17.76-7.88,19.61-15.33a11.2,11.2,0,0,0-4.35-1.34c-.93-.11-1.9-.18-2.71-.22-1.45-1.1-3.59-5.62-4.07-12.64l-.6.16-10.12,2.77s.47,3.22.69,6.26c.18,2.38.21,4.65-.24,5.21l-1.27.28h0a64.8,64.8,0,0,0-5.26,11.29Z"/><path class="cls-15" d="M274.14,144.54s.47,3.21.69,6.25c5.73-.57,8.39-6,9.43-9l-10.12,2.77Z"/><path class="cls-8" d="M272.43,147.55s13.6-.75,13-9.21.75-14.26-8-14.14-10.17,3.47-10.66,6.34,2.06,17,5.61,17Z"/><path class="cls-7" d="M266.89,125.81c1.92-2.7,3.55-2.25,4.49-1.55a9.52,9.52,0,0,1,12.35,1.07,16.26,16.26,0,0,0,6,9.18s-2.37,1.7-8.18.65a9.84,9.84,0,0,1-4.86-2.86,32.08,32.08,0,0,0,5.93,6.27c-7-2.66-10.46-11.95-10.81-12.94a10.73,10.73,0,0,0-2.67,4.16c-.53,2.21-2.78,5.65-4.09,5.6,0,0-1-5.54,1.86-9.58Z"/><path class="cls-10" d="M299.86,195.24c1.23-6.28,5.24-31.37,1.23-39.44-1.44-2.9-7.08-3.16-13.28-2.91-1.92,1.24-9.27,6-12.28,5.36l-.17,0c-1.42-.36-2-1.35-.77-2.21a26.44,26.44,0,0,0-6.88.42c-2.15.4-8,3.41-8,3.41s2.93,5.28,7.23,7.1c-.73,6.55.36,9.44,7.16,24.58,5.75,12.8-.77,24.32-.77,24.32s33.82,27.2,34,13.35c.14-10.42-9.09-25.91-7.52-33.94Z"/><path class="cls-9" d="M271.69,245.41a6.3,6.3,0,0,1-4.52-2.76c-.17-.24-.34-.5-.53-.78-3.85-5.83-5.35-23.68-14-42.7-2.11-4.63-9.68-5.46-11.74-10.7,0,0-5.08-17,9.72-17.46s39.67,47.2,40.06,52.2c.38,4.85,9.79,25.44-19,22.2Z"/><path class="cls-7" d="M212.83,245h21.08s.79-3.36-.6-5.65c-1.22-2-.75-3.18.15-4.85a8.16,8.16,0,0,1-3.55.66,7.32,7.32,0,0,1-3.13-1.1,74.13,74.13,0,0,1-6,6.31c-1.38,1-7.52.64-7.94,4.63Z"/><path class="cls-12" d="M297.64,162.38s2.74,25-15.05,30.19-22.84-23-8.48-25a139,139,0,0,0,23.53-5.19Z"/><path class="cls-9" d="M240.41,175.91c-1.27,9.52-6.23,39.55-15,54.21-2.82,4.72,7.1,7.37,7.15,7.35,1.33-.34,3.55-2.47,4.57-3.39,7.1-6.39,21.51-24.51,21.51-39,0-7.08.12-20.61-5-24.05-3.17-2.11-12.73,1.13-13.23,4.91Z"/><path class="cls-13" d="M284.26,245s-.78-1.09-2.14-3.15c-1.62-2.46-3.42-7.29-5.59-13.49-2.29-6.5-5-14.5-8.39-22.82-1.05-2.57-2.16-5.17-3.34-7.77-2.11-4.62-7.91-4-10-9.22,0,0-8.06-18.14,6.75-18.64s43,48.53,44.57,53.28c1.77,5.2,10.41,26.79-21.88,21.81Z"/><path class="cls-7" d="M228.3,245h21.08s.79-3.36-.59-5.65c-1.23-2-.76-3.18.15-4.85a8.19,8.19,0,0,1-3.55.66,7.41,7.41,0,0,1-3.14-1.1,74,74,0,0,1-6,6.31c-1.38,1-7.52.64-7.95,4.63Z"/><path class="cls-9" d="M276.53,228.38c-2.29-6.5-5-14.5-8.39-22.82.88-6.3,2.79-11.82,6-14.05,0,0,7.79,24.14,2.39,36.87Z"/><path class="cls-13" d="M252.71,175.24c-1.27,9.51-3.06,40.22-11.8,54.88-2.82,4.72,7.1,7.37,7.16,7.35,1.33-.34,3.54-2.47,4.56-3.39,7.1-6.39,21.51-24.51,21.51-39,0-7.08-8.31-20-13.46-23.48a5.18,5.18,0,0,0-8,3.67Z"/><path class="cls-17" d="M207.08,145.69l21.59-2.29a1.39,1.39,0,0,1,1.45.89l7.72,20.3a1.39,1.39,0,0,1-1.25,1.88l-21.42.87a1.4,1.4,0,0,1-1.34-.86l-7.89-18.86a1.4,1.4,0,0,1,1.14-1.93Z"/><path class="cls-5" d="M205.21,145.89l21.58-2.29a1.38,1.38,0,0,1,1.45.89L236,164.78a1.39,1.39,0,0,1-1.24,1.89l-21.42.86a1.39,1.39,0,0,1-1.34-.85l-7.89-18.87a1.39,1.39,0,0,1,1.14-1.92Z"/><path class="cls-17" d="M217.17,155.36a.89.89,0,0,1,.84-1.31,2.07,2.07,0,0,1,1.78,1.31.89.89,0,0,1-.83,1.32,2.08,2.08,0,0,1-1.79-1.32Z"/><path class="cls-17" d="M205.85,147.81a.44.44,0,0,1,.41-.65,1,1,0,0,1,.88.65.43.43,0,0,1-.41.64,1,1,0,0,1-.88-.64Z"/><path class="cls-8" d="M296,155.8s-29.92,11-34.42,10.79c-2.9-.15-27-8.63-27-8.63l-2.17,4.1s23.51,15.11,30,15c12.76-.15,34.28-8,36.72-9.52s4-10.21-3.05-11.77Z"/><path class="cls-8" d="M234.52,158s-2.17-3.34-4.33-3.44S224.3,156,223,156.24s-4.91,1.42-3.83,3.19,6.08,2.16,8.24,1.76a10,10,0,0,1,4.91.87l2.17-4.1Z"/><path class="cls-8" d="M230.78,154.62s-3.44-1.57-4.42-1.87-.78,0-.49.94,2.06,1.82,2.06,2.11,2.85-1.18,2.85-1.18Z"/><path class="cls-8" d="M207.43,156.19s2.16-3.43,2.87-3.57c2.16-.42,2.16,2.42,1.7,4.26s-2.15,3.82-2.61,3.66-2.47-2.54-2-4.35Z"/><path class="cls-8" d="M207.35,156.88a5.73,5.73,0,0,0,3,5.84l-3-5.84Z"/><path class="cls-18" d="M269.88,142.69s1.29-.51,4.91-.22c0,0-.19,1.41-2.86,1.55a2.14,2.14,0,0,1-2.05-1.33Z"/><path class="cls-10" d="M280.57,161.23a16.45,16.45,0,0,0,11.87,10.4s15.17-4.68,7.62-15c0,0-7.47-5.55-19.49,4.61Z"/><path class="cls-19" d="M599.9,246.61H.1a.11.11,0,0,1-.1-.1v-1.39a.1.1,0,0,1,.1-.1H599.9a.1.1,0,0,1,.1.1v1.39a.11.11,0,0,1-.1.1Z"/></g></g></g></svg>